<?xml version="1.0" standalone="no"?><!DOCTYPE svg PUBLIC "-//W3C//DTD SVG 1.1//EN" "http://www.w3.org/Graphics/SVG/1.1/DTD/svg11.dtd"><svg t="1681015819371" class="icon" viewBox="0 0 1024 1024" version="1.1" xmlns="http://www.w3.org/2000/svg" p-id="30341" width="48" height="48" xmlns:xlink="http://www.w3.org/1999/xlink"><path d="M626.504285 375.563329a26.383253 26.383253 0 0 1-25.98523-26.724415c0-73.918596-58.338831-134.020101-129.983009-134.020101a26.383253 26.383253 0 0 1-25.985229-26.724416c0-14.783719 11.656394-26.838136 25.985229-26.838136 71.644178 0 129.983008-60.101505 129.983009-133.963241 0-14.783719 11.656394-26.781276 25.98523-26.781276 14.385696 0 25.98523 11.997557 25.985229 26.781276 0 73.861736 58.338831 133.963241 129.983009 133.963241 14.328836 0 25.98523 11.997557 25.985229 26.781276s-11.656394 26.781276-25.985229 26.781276c-71.644178 0-129.983008 60.158365-129.983009 133.96324 0 14.783719-11.599534 26.781276-25.985229 26.781276zM564.185222 188.037537c25.473485 15.920928 46.966739 37.925926 62.319063 64.252318 15.352324-26.269532 36.845577-48.33139 62.375923-64.252318a186.729746 186.729746 0 0 1-62.375923-64.252318c-15.352324 26.269532-36.788717 48.38825-62.319063 64.252318zM106.629111 536.307846a26.383253 26.383253 0 0 1-25.98523-26.724415 26.383253 26.383253 0 0 0-25.985229-26.838137A26.383253 26.383253 0 0 1 28.673422 455.964018c0-14.783719 11.656394-26.781276 25.98523-26.781276a26.383253 26.383253 0 0 0 25.985229-26.838137c0-14.783719 11.656394-26.724416 25.98523-26.724415 14.385696 0 26.04209 11.940696 26.04209 26.724415s11.599534 26.838136 25.98523 26.838137c14.328836 0 25.98523 11.940696 25.985229 26.724416s-11.656394 26.838136-25.985229 26.838136a26.383253 26.383253 0 0 0-25.98523 26.781276c0 14.783719-11.656394 26.781276-26.04209 26.781276zM972.102152 854.555833l-550.40924-567.239935a76.420456 76.420456 0 0 0-110.309289 0l-30.420346 31.443833c-14.726859 15.124882-22.744183 35.253484-22.744183 56.860459 0 21.493253 8.074185 41.621856 22.744183 56.860459l550.35238 567.183075a76.420456 76.420456 0 0 0 110.309289 0l30.477206-31.443834c14.669998-15.124882 22.744183-35.253484 22.744184-56.860459 0-21.493253-8.131046-41.678716-22.744184-56.860458zM342.656875 334.73752a25.587206 25.587206 0 0 1 36.788717 0l74.771503 77.102782-53.27825 50.605808L326.053621 385.400189a27.406741 27.406741 0 0 1 0-37.869066l16.489533-12.736742z m567.012494 617.618302a25.416625 25.416625 0 0 1-36.674996 0L434.259074 500.201455l54.017436-50.890111 438.735299 452.211228a27.406741 27.406741 0 0 1 0 37.869066l-17.34244 12.964184zM210.62689 268.438225a26.383253 26.383253 0 0 1-25.98523-26.838136c0-44.294297-34.969182-80.343828-78.012549-80.343828a26.383253 26.383253 0 0 1-25.98523-26.781276c0-14.783719 11.656394-26.781276 25.98523-26.781276 43.043367 0 78.012549-36.106391 78.012549-80.400689 0-14.783719 11.656394-26.781276 25.98523-26.781276s25.98523 11.997557 25.98523 26.781276c0 44.351158 34.969182 80.400689 78.012549 80.400689 14.328836 0 25.98523 11.940696 25.985229 26.724415s-11.656394 26.838136-25.985229 26.838137c-43.043367 0-78.012549 36.049531-78.012549 80.343828 0 14.783719-11.656394 26.838136-25.98523 26.838136z m-26.098951-133.96324c9.89372 7.676162 18.65023 16.716975 26.098951 26.894997a134.190682 134.190682 0 0 1 26.09895-26.894997 134.190682 134.190682 0 0 1-26.09895-26.894997 134.190682 134.190682 0 0 1-26.098951 26.894997zM210.62689 804.234327a26.383253 26.383253 0 0 1-25.98523-26.781276c0-44.351158-34.969182-80.400689-78.012549-80.400688a26.383253 26.383253 0 0 1-25.98523-26.724416c0-14.783719 11.656394-26.838136 25.98523-26.838136 43.043367 0 78.012549-36.049531 78.012549-80.400689 0-14.783719 11.656394-26.724416 25.98523-26.724415s25.98523 11.940696 25.98523 26.724415c0 44.351158 34.969182 80.400689 78.012549 80.400689 14.328836 0 25.98523 11.997557 25.985229 26.781276s-11.656394 26.781276-25.985229 26.781276c-43.043367 0-78.012549 36.049531-78.012549 80.400688 0 14.783719-11.656394 26.781276-25.98523 26.781276z m-26.098951-133.96324c9.89372 7.676162 18.65023 16.716975 26.098951 26.894997a134.190682 134.190682 0 0 1 26.09895-26.894997 134.190682 134.190682 0 0 1-26.09895-26.894997 134.190682 134.190682 0 0 1-26.098951 26.894997z" fill="#001529" p-id="30342"></path></svg>