<svg width="20" height="20" viewBox="0 0 20 20" fill="none" xmlns="http://www.w3.org/2000/svg">
<path d="M7.08337 6.66699C7.77373 6.66699 8.33337 6.10735 8.33337 5.41699C8.33337 4.72664 7.77373 4.16699 7.08337 4.16699C6.39302 4.16699 5.83337 4.72664 5.83337 5.41699C5.83337 6.10735 6.39302 6.66699 7.08337 6.66699Z" fill="#666666"/>
<path d="M12.9167 6.66699C13.6071 6.66699 14.1667 6.10735 14.1667 5.41699C14.1667 4.72664 13.6071 4.16699 12.9167 4.16699C12.2264 4.16699 11.6667 4.72664 11.6667 5.41699C11.6667 6.10735 12.2264 6.66699 12.9167 6.66699Z" fill="#666666"/>
<path d="M8.33337 10.0003C8.33337 10.6907 7.77373 11.2503 7.08337 11.2503C6.39302 11.2503 5.83337 10.6907 5.83337 10.0003C5.83337 9.30997 6.39302 8.75033 7.08337 8.75033C7.77373 8.75033 8.33337 9.30997 8.33337 10.0003Z" fill="#666666"/>
<path d="M12.9167 11.2503C13.6071 11.2503 14.1667 10.6907 14.1667 10.0003C14.1667 9.30997 13.6071 8.75033 12.9167 8.75033C12.2264 8.75033 11.6667 9.30997 11.6667 10.0003C11.6667 10.6907 12.2264 11.2503 12.9167 11.2503Z" fill="#666666"/>
<path d="M8.33337 14.5837C8.33337 15.274 7.77373 15.8337 7.08337 15.8337C6.39302 15.8337 5.83337 15.274 5.83337 14.5837C5.83337 13.8933 6.39302 13.3337 7.08337 13.3337C7.77373 13.3337 8.33337 13.8933 8.33337 14.5837Z" fill="#666666"/>
<path d="M12.9167 15.8337C13.6071 15.8337 14.1667 15.274 14.1667 14.5837C14.1667 13.8933 13.6071 13.3337 12.9167 13.3337C12.2264 13.3337 11.6667 13.8933 11.6667 14.5837C11.6667 15.274 12.2264 15.8337 12.9167 15.8337Z" fill="#666666"/>
</svg>
