<?xml version="1.0" standalone="no"?><!DOCTYPE svg PUBLIC "-//W3C//DTD SVG 1.1//EN" "http://www.w3.org/Graphics/SVG/1.1/DTD/svg11.dtd"><svg t="1631454216260" class="icon" viewBox="0 0 1024 1024" version="1.1" xmlns="http://www.w3.org/2000/svg" p-id="2219" xmlns:xlink="http://www.w3.org/1999/xlink" width="32" height="32"><defs><style type="text/css"></style></defs><path d="M697.652 256c-23.565 0-42.667-19.103-42.667-42.667s19.102-42.666 42.667-42.666h124.651c40.288 0 73.697 31.956 73.697 72.347v85.783c0 23.564-19.103 42.667-42.667 42.667s-42.666-19.103-42.666-42.667V256H697.652z m113.015 597.333V496.565c0-23.564 19.102-42.666 42.666-42.666C876.897 453.899 896 473 896 496.565V866.32c0 40.391-33.41 72.348-73.697 72.348H201.697c-40.288 0-73.697-31.957-73.697-72.348V243.014c0-40.39 33.41-72.347 73.697-72.347h124.727c23.564 0 42.667 19.102 42.667 42.666 0 23.564-19.103 42.667-42.667 42.667h-113.09v597.333h597.333zM368.485 541.418c-23.564 0-42.667-19.102-42.667-42.666 0-23.564 19.103-42.667 42.667-42.667h320c23.564 0 42.667 19.103 42.667 42.667s-19.103 42.666-42.667 42.666h-320z m58.182-370.751c-23.564 0-42.667 19.102-42.667 42.666C384 236.897 403.103 256 426.667 256h170.666C620.897 256 640 236.897 640 213.333s-19.103-42.666-42.667-42.666H426.667z m0-85.334h170.666c70.693 0 128 57.308 128 128 0 70.693-57.307 128-128 128H426.667c-70.693 0-128-57.307-128-128 0-70.692 57.307-128 128-128zM368.485 696.57c-23.564 0-42.667-19.103-42.667-42.667s19.103-42.666 42.667-42.666h320c23.564 0 42.667 19.102 42.667 42.666 0 23.564-19.103 42.667-42.667 42.667h-320z" p-id="2220" fill="#f49776"></path></svg>