<?xml version="1.0" standalone="no"?><!DOCTYPE svg PUBLIC "-//W3C//DTD SVG 1.1//EN" "http://www.w3.org/Graphics/SVG/1.1/DTD/svg11.dtd"><svg t="1631454148586" class="icon" viewBox="0 0 1024 1024" version="1.1" xmlns="http://www.w3.org/2000/svg" p-id="1906" width="32" height="32" xmlns:xlink="http://www.w3.org/1999/xlink"><defs><style type="text/css"></style></defs><path d="M826.666667 644.266667A341.333333 341.333333 0 0 0 342.613333 215.594667l-42.325333-74.112A426.666667 426.666667 0 0 1 900.992 687.36l57.258667 33.024-177.706667 94.549333-7.04-201.130666 53.162667 30.677333zM197.333333 379.733333A341.333333 341.333333 0 0 0 681.386667 808.405333l42.325333 74.112A426.666667 426.666667 0 0 1 123.008 336.64L65.706667 303.658667 243.2 209.066667l7.253333 201.258666L197.290667 379.733333zM554.666667 577.536h128v85.333333h-128v85.333334h-85.333334v-85.333334H341.333333v-85.333333h128v-42.666667H341.333333v-85.333333h110.336L361.130667 358.997333 421.546667 298.666667 512 389.162667 602.496 298.666667l60.373333 60.330666-90.538666 90.538667H682.666667v85.333333h-128v42.666667z" p-id="1907" fill="#b37feb"></path></svg>