<?xml version="1.0" standalone="no"?><!DOCTYPE svg PUBLIC "-//W3C//DTD SVG 1.1//EN" "http://www.w3.org/Graphics/SVG/1.1/DTD/svg11.dtd"><svg t="1631453917190" class="icon" viewBox="0 0 1024 1024" version="1.1" xmlns="http://www.w3.org/2000/svg" p-id="1531" width="32" height="32" xmlns:xlink="http://www.w3.org/1999/xlink"><defs><style type="text/css"></style></defs><path d="M300.032 558.08V427.52c0-19.968 13.312-35.84 29.696-35.84s29.696 15.872 29.696 35.84V558.08c0 19.968-13.312 35.84-29.696 35.84s-29.696-15.872-29.696-35.84zM480.256 558.08V363.52c0-19.968 13.312-35.84 29.696-35.84 16.384 0 29.696 15.872 29.696 35.84v194.56c0 19.968-13.312 35.84-29.696 35.84-16.384 0-29.696-15.872-29.696-35.84zM660.48 558.08V299.52c0-19.968 13.312-35.84 29.696-35.84s29.696 15.872 29.696 35.84V558.08c0 19.968-13.312 35.84-29.696 35.84s-29.696-15.872-29.696-35.84z" p-id="1532" fill="#2d8cf0"></path><path d="M861.696 781.312H568.32v117.248h146.944c16.384 0 29.184 13.312 29.184 29.184 0 16.384-13.312 29.184-29.184 29.184H362.496c-16.384-1.024-28.672-14.848-27.648-30.72 1.024-14.848 12.8-27.136 27.648-27.648h146.944v-117.248H157.184c-65.024 0-117.248-52.736-117.248-117.248V194.048C39.936 129.024 92.16 76.8 157.184 76.8h704.512c65.024 0 117.248 52.736 117.248 117.248v470.016c0.512 64.512-52.224 117.248-117.248 117.248z m58.88-587.264c0-32.256-26.112-58.88-58.88-58.88H157.184c-32.256 0-58.88 26.112-58.88 58.88v470.016c0 32.256 26.112 58.88 58.88 58.88h704.512c32.256 0 58.88-26.112 58.88-58.88V194.048z" p-id="1533" fill="#2d8cf0"></path></svg>