<?xml version="1.0" standalone="no"?><!DOCTYPE svg PUBLIC "-//W3C//DTD SVG 1.1//EN" "http://www.w3.org/Graphics/SVG/1.1/DTD/svg11.dtd"><svg t="1631454355958" class="icon" viewBox="0 0 1024 1024" version="1.1" xmlns="http://www.w3.org/2000/svg" p-id="2654" xmlns:xlink="http://www.w3.org/1999/xlink" width="32" height="32"><defs><style type="text/css"></style></defs><path d="M931.707 868.351H853.75v-36.85c0-9.742-3.977-18.707-10.501-25.23-6.528-6.521-15.485-10.609-25.271-10.609h-15.913v-36.704c0-9.818-4.163-18.921-10.576-25.237-6.452-6.522-15.521-10.533-25.373-10.533h-309.94c-9.931 0-18.711 4.011-25.309 10.533-6.412 6.453-10.571 15.419-10.571 25.237v36.704h-15.914c-9.855 0-18.924 4.088-25.271 10.609l-1.613 1.721c-5.483 6.308-8.89 14.551-8.89 23.51v36.85h-77.959c-18.604 0-33.62 14.985-33.62 33.624 0 18.638 15.017 33.623 33.62 33.623h641.058c18.536 0 33.549-14.985 33.549-33.623 0-18.64-15.013-33.625-33.549-33.625z m-118.206 0H408.827v-32.328h31.687c11.111 0 20.179-8.89 20.179-20.071V763.47h300.904v52.481c0 11.182 9.144 20.071 20.248 20.071h31.656v32.329zM443.2 512.495a65.26 65.26 0 0 0-4.518 23.806c0 17.2 6.599 34.408 19.643 47.596l22.113 22.156 1.26 1.072c12.9 12.397 29.604 18.493 46.307 18.493 16.99 0 34.338-6.453 47.207-19.565h0.18L706.29 475.081l1.221-1.073c12.33-13.052 18.35-29.758 18.35-46.455 0-17.206-6.521-34.193-19.57-47.245h-0.072l0.072-0.359-22.078-22.01c-13.049-12.975-30.252-19.498-47.566-19.498-8.136 0-16.306 1.432-24.012 4.376L471.446 201.664c3.082-7.74 4.548-15.915 4.548-24.012 0-17.207-6.702-34.415-19.746-47.604l-22.116-22.01c-13.048-13.044-30.214-19.636-47.387-19.636-17.204 0-34.518 6.592-47.563 19.636L208.28 239.009l-1.107 1.155c-12.261 12.9-18.46 29.751-18.46 46.091 0 17.345 6.523 34.552 19.567 47.673l22.082 22.078 1.29 1.08c13.046 12.467 29.641 18.563 46.275 18.563 8.133 0 16.237-1.582 24.013-4.444l14.015 14.117L82.044 619.385c-15.522 15.48-23.3 35.916-23.3 56.272 0 20.647 7.777 41.075 23.3 56.563 15.662 15.556 36.093 23.364 56.562 23.364 20.499 0 40.86-7.809 56.451-23.364L428.9 498.308l14.3 14.187z m174.484-126.024c5.271-5.159 12.116-7.808 18.962-7.808 6.991 0 13.836 2.648 19.072 7.808l22.112 22.155c5.16 5.159 7.778 12.253 7.778 18.927 0 6.66-2.364 13.183-6.987 18.274l-0.791 0.79-130.901 130.979a26.943 26.943 0 0 1-18.924 7.809c-6.522 0-13.227-2.29-18.136-7.093l-0.898-0.716-22.185-22.153c-5.088-5.092-7.778-12.117-7.778-19.142 0-6.386 2.367-12.839 6.99-17.998l0.788-0.931 130.898-130.901z m-37.668-19.209L467.467 479.883 334.559 346.835 447.18 234.282l132.836 132.98z m-283.167-39.72c-5.088 5.161-11.896 7.748-18.921 7.748-6.525 0-13.192-2.223-18.14-7.032l-0.859-0.716-22.186-22.291c-5.091-4.946-7.743-11.972-7.743-18.996 0-6.453 2.329-12.9 6.953-18.06l0.79-0.867 130.899-130.827c5.266-5.166 12.078-7.739 19.103-7.739 6.812 0 13.767 2.573 18.927 7.739l22.112 22.079c5.165 5.16 7.782 12.191 7.782 19.072 0 6.453-2.295 13.044-6.846 18.204l-0.937 0.716-130.934 130.97zM166.597 703.765c-7.633 7.595-17.885 11.461-27.991 11.461-10.183 0-20.469-3.866-27.996-11.461-7.637-7.679-11.545-17.93-11.545-28.107 0-10.105 3.908-20.22 11.545-27.815l233.987-233.98 55.806 55.84-233.806 234.062zM466 685.625v9.75c0 8.076 5.373 14.625 12 14.625h272c6.627 0 12-6.549 12-14.625v-9.75c0-8.076-5.373-14.625-12-14.625H478c-6.627 0-12 6.549-12 14.625z" p-id="2655" fill="#2ccb98"></path></svg>